<svg id="hoso" xmlns="http://www.w3.org/2000/svg" viewBox="0 0 27.59 27.58"><defs><style>.cls-1{fill:#1a96d5;}</style></defs><path class="cls-1" d="M2.21,19.54h0l1.53,3.7a56.5,56.5,0,0,1,5.85-4.13,54.59,54.59,0,0,1,6.16-3.27c5.29-2.39,10.18-3.54,14-3.44L28.25,8.75h0A3.61,3.61,0,0,1,24.33,8l-.3-.3a3.59,3.59,0,0,1-.78-3.92h0L19.54,2.21a3.61,3.61,0,0,1-3.33,2.22h-.42a3.61,3.61,0,0,1-3.33-2.22L8.75,3.75h0A3.59,3.59,0,0,1,8,7.67l-.3.3a3.61,3.61,0,0,1-3.92.78h0L2.21,12.46h0a3.61,3.61,0,0,1,2.22,3.33v.42A3.61,3.61,0,0,1,2.21,19.54Zm22.05-8a35.85,35.85,0,0,0-5,1.35l2.45-4.33A9.47,9.47,0,0,1,24.26,11.55ZM15.82,6.63H16a9.32,9.32,0,0,1,4.52,1.16l-3.33,5.9a52.53,52.53,0,0,0-7.44,3.7Zm-1.75.19L7.18,19l0,0A9.38,9.38,0,0,1,14.07,6.82Z" transform="translate(-2.21 -2.21)"/><path class="cls-1" d="M23.25,28.25A3.59,3.59,0,0,1,24,24.33l.3-.3a4.23,4.23,0,0,1,.4-.34,4.71,4.71,0,0,0-3.19,4.44,5.29,5.29,0,0,0,.08.8l1.63-.68Z" transform="translate(-2.21 -2.21)"/><path class="cls-1" d="M10.71,29.07l1.75.72h0a3.61,3.61,0,0,1,3.33-2.22h.42a3.6,3.6,0,0,1,1.53.34,4.66,4.66,0,0,0-3-1.12A4.7,4.7,0,0,0,10.71,29.07Z" transform="translate(-2.21 -2.21)"/><path class="cls-1" d="M29.79,19.54a3.61,3.61,0,0,1-2.22-3.33v-.42a3.58,3.58,0,0,1,.57-1.93,22.87,22.87,0,0,0-2.93.38A9.36,9.36,0,0,1,12.59,24.73l4.47-7.91-.72.32c-.51.23-1,.46-1.51.71L11.3,24.11a9.45,9.45,0,0,1-2.85-2.56q-1.15.78-2.25,1.59A3.62,3.62,0,0,1,7.67,24l.3.3a3.59,3.59,0,0,1,.78,3.92h0l1.42.59a5.28,5.28,0,0,1,9.53.89l1.37-.57a5.89,5.89,0,0,1-.1-1,5.28,5.28,0,0,1,7.29-4.89l1.53-3.7Z" transform="translate(-2.21 -2.21)"/></svg>