<svg class="img-fluid" id="outputsvg" xmlns="http://www.w3.org/2000/svg" style="transform: matrix(1, 0, 0, 1, 0, 0); transform-origin: 50% 50%; cursor: move; transition: transform 200ms ease-in-out 0s;" width="528" height="477" viewBox="0 0 5280 4770">
  <g id="l1aqQbKtkxhGre1G2unUnVi" fill="rgb(255,255,255)" style="transform: none;">
    <g>
      <path id="p5j2UCGK0" d="M550 4650 l0 -90 -60 0 c-228 0 -409 -143 -450 -355 -8 -44 -10 -573 -8 -1965 l3 -1905 29 -60 c52 -106 163 -199 281 -235 51 -16 4453 -24 4555 -9 184 28 328 163 360 340 7 36 9 701 8 1955 -3 2127 4 1923 -77 2043 -76 112 -160 162 -308 184 l-73 11 0 50 c0 28 -3 68 -6 89 l-7 37 -538 0 c-618 0 -554 13 -545 -109 l6 -71 -1060 0 -1060 0 0 90 0 90 -525 0 -525 0 0 -90z m3315 -444 c59 -27 117 -88 136 -142 20 -57 21 -3487 1 -3552 -18 -58 -82 -126 -140 -149 -45 -17 -130 -18 -1672 -18 l-1625 0 -55 31 c-32 18 -68 49 -85 73 l-30 43 -3 1771 c-3 1976 -8 1817 67 1895 74 76 -59 70 1741 71 l1615 1 50 -24z m933 -378 l3 -78 -286 0 -285 0 0 80 0 80 283 -2 282 -3 3 -77z m2 -372 c0 -58 -3 -75 -16 -80 -8 -3 -72 -4 -142 -2 -70 2 -191 4 -269 5 l-143 1 0 75 0 75 285 0 285 0 0 -74z m-22 -306 c21 0 22 -4 22 -75 l0 -75 -285 0 -285 0 0 74 0 75 48 4 c26 3 144 3 262 1 118 -2 225 -4 238 -4z m22 -455 l0 -75 -285 0 -285 0 0 75 0 75 285 0 285 0 0 -75z m0 -380 l0 -75 -285 0 -285 0 0 75 0 75 285 0 285 0 0 -75z m0 -370 l0 -75 -285 0 -285 0 0 75 0 75 285 0 285 0 0 -75z m0 -565 l0 -240 -285 0 -285 0 0 240 0 240 285 0 285 0 0 -240z m0 -670 l0 -70 -285 0 -285 0 0 70 0 70 285 0 285 0 0 -70z"></path>
      <path id="pWbVLJExN" d="M650 4002 c-109 -55 -107 -221 4 -259 33 -11 303 -13 1561 -11 1432 3 1522 4 1548 21 84 55 76 204 -13 249 -33 17 -128 18 -1550 18 -1422 0 -1517 -1 -1550 -18z"></path>
      <path id="p1BSfOhgr7" d="M820 3530 c-104 -3 -173 -10 -187 -17 -37 -22 -63 -75 -63 -132 0 -44 5 -56 33 -87 26 -29 44 -38 83 -45 73 -12 2991 -11 3035 1 19 5 48 23 64 40 23 24 30 41 33 89 5 71 -19 121 -68 141 -23 10 -336 13 -1397 14 -753 0 -1442 -1 -1533 -4z"></path>
      <path id="pfZOLIhCN" d="M650 3032 c-52 -26 -80 -74 -80 -138 0 -49 3 -57 39 -93 l39 -39 143 -7 c79 -3 772 -5 1540 -3 l1395 3 37 25 c45 31 57 57 57 121 0 65 -23 104 -75 129 -41 20 -67 20 -1551 20 -1417 0 -1511 -1 -1544 -18z"></path>
      <path id="p1380dbOaq" d="M638 2533 c-63 -40 -88 -146 -48 -211 40 -66 -64 -62 1612 -62 1492 0 1524 0 1555 20 47 28 65 62 65 120 0 61 -26 109 -72 132 -33 17 -128 18 -1560 18 -1401 -1 -1527 -2 -1552 -17z"></path>
      <path id="p19A91aQZ7" d="M666 2050 c-58 -18 -96 -73 -96 -140 0 -57 23 -106 62 -130 33 -20 46 -20 1563 -20 1500 0 1531 0 1562 20 49 30 67 73 64 157 -2 47 -51 99 -104 110 -54 12 -3013 14 -3051 3z"></path>
      <path id="ptthhz3h2" d="M672 1550 c-64 -15 -102 -73 -102 -155 0 -58 21 -100 63 -122 30 -17 118 -18 1567 -18 1491 0 1536 1 1563 19 40 27 60 72 60 134 0 58 -17 89 -67 126 -27 21 -29 21 -1539 23 -832 0 -1527 -2 -1545 -7z"></path>
      <path id="pIbmJHhTi" d="M710 1000 l-125 -5 -3 -72 -3 -73 1616 -2 1615 -3 0 78 0 77 -1452 1 c-799 0 -1469 1 -1488 2 -19 1 -91 0 -160 -3z"></path>
      <path id="pgL0WbSly" d="M580 640 l0 -80 1615 0 1615 0 0 80 0 80 -1615 0 -1615 0 0 -80z"></path>
    </g>
  </g>
</svg>