<svg class="img-fluid" id="outputsvg" xmlns="http://www.w3.org/2000/svg" style="transform: none; transform-origin: 50% 50%; cursor: move;" width="572" height="686" viewBox="0 0 5720 6860">
  <g id="l3M0cVFi4Wn11pk6Bznh4xY" fill="rgb(255,255,255)" style="transform: none;">
    <g>
      <path id="p8DRq9b2l" d="M465 6838 c-35 -20 -40 -40 -45 -202 l-5 -160 -32 -8 c-105 -27 -238 -148 -297 -270 -72 -146 -66 101 -66 -2930 0 -1927 3 -2753 11 -2790 6 -29 30 -94 54 -144 75 -155 216 -269 386 -309 56 -13 351 -15 2401 -15 1649 0 2353 3 2390 11 85 17 191 75 267 145 79 73 123 137 160 232 l26 67 3 2768 c2 3058 7 2828 -61 2966 -45 93 -150 197 -247 245 l-75 37 -5 160 -5 161 -28 24 -28 24 -315 0 -316 0 -29 -29 -29 -29 0 -136 0 -136 -1710 0 -1710 0 0 136 0 136 -29 29 -29 29 -309 0 c-210 -1 -314 -4 -328 -12z m4761 -633 c60 -18 125 -71 161 -132 20 -34 27 -63 31 -119 l5 -74 -2552 0 -2551 0 0 63 c0 114 83 229 189 261 71 22 4644 23 4717 1z m-2117 -771 c370 -54 709 -220 956 -468 286 -286 452 -618 511 -1019 23 -158 14 -426 -20 -594 -87 -430 -316 -796 -657 -1053 -186 -140 -370 -232 -579 -288 -194 -53 -292 -65 -490 -59 -319 10 -544 73 -820 230 -385 220 -693 627 -805 1064 -58 226 -71 555 -31 778 99 551 428 995 921 1243 165 83 405 155 585 175 93 10 331 6 429 -9z m1744 -868 c18 -7 40 -24 49 -38 24 -37 113 -319 137 -436 48 -233 49 -527 1 -762 -22 -110 -88 -318 -122 -383 -34 -68 -117 -83 -172 -32 -42 39 -42 63 7 207 85 248 117 487 97 718 -14 168 -31 258 -85 445 -23 83 -45 161 -48 174 -9 38 18 90 55 106 41 18 42 18 81 1z m-3849 -27 c35 -42 33 -70 -15 -218 -137 -421 -140 -784 -9 -1193 22 -69 40 -137 40 -151 0 -34 -43 -84 -79 -92 -17 -4 -44 0 -65 9 -44 18 -72 74 -129 251 -48 149 -65 236 -79 409 -21 263 14 546 97 785 72 206 90 231 166 231 40 0 51 -4 73 -31z m4416 -2729 l0 -110 -756 2 -756 3 -29 33 c-38 42 -40 98 -5 139 l24 28 759 5 c417 3 759 6 761 8 1 1 2 -48 2 -108z m-3551 69 c44 -43 44 -103 0 -145 l-30 -29 -760 -3 -759 -2 0 105 0 105 759 0 759 0 31 -31z m3559 -917 l-3 -437 -25 -50 c-30 -60 -91 -123 -145 -150 -39 -20 -71 -20 -2370 -23 -2640 -2 -2388 -11 -2481 82 -87 88 -90 110 -86 736 l2 285 2556 -3 2555 -2 -3 -438z"></path>
      <path id="pz9MTifRG" d="M2690 5160 c-449 -62 -830 -316 -1063 -709 -128 -216 -190 -458 -191 -746 -2 -319 69 -563 237 -816 249 -377 635 -605 1092 -649 382 -36 786 110 1080 391 238 228 367 460 437 784 28 133 31 414 5 552 -52 275 -148 484 -315 683 -223 268 -506 432 -849 495 -104 20 -341 27 -433 15z m445 -310 c220 -48 389 -141 574 -316 100 -93 111 -136 56 -202 -30 -36 -70 -47 -110 -32 -15 6 -66 46 -112 90 -143 135 -300 216 -494 256 -107 21 -299 15 -411 -15 -283 -74 -496 -246 -633 -512 -25 -49 -55 -95 -68 -104 -35 -25 -100 -19 -130 11 -46 46 -45 74 12 190 64 133 116 208 210 306 195 205 404 306 726 352 71 10 284 -3 380 -24z m803 -795 c25 -21 33 -40 53 -132 20 -91 24 -134 23 -273 -1 -145 -4 -177 -27 -262 -117 -437 -504 -791 -940 -859 -159 -25 -475 6 -583 57 -84 40 -83 155 2 190 31 13 43 12 122 -6 196 -45 297 -50 445 -19 301 60 546 252 682 533 65 133 89 242 89 396 -1 80 -7 150 -18 193 -28 117 -20 163 32 191 41 23 86 20 120 -9z m-1798 -273 c15 -12 29 -47 46 -112 58 -226 182 -376 394 -477 105 -50 129 -73 130 -120 0 -40 -48 -98 -87 -106 -64 -12 -216 58 -330 153 -149 124 -251 286 -298 474 -27 109 -25 137 13 179 31 33 97 38 132 9z"></path>
      <path id="prLx5EcIH" d="M615 1127 c-36 -30 -44 -93 -18 -126 28 -34 80 -40 395 -40 l276 -1 30 -25 c36 -30 45 -69 27 -112 -25 -60 -41 -63 -380 -63 l-307 0 -29 -29 c-21 -22 -29 -39 -29 -66 0 -27 8 -44 29 -66 l29 -29 537 0 536 0 24 25 25 24 0 231 c0 234 -3 260 -39 287 -12 9 -146 12 -548 13 l-532 0 -26 -23z"></path>
      <path id="pISoUSnXv" d="M2437 1140 c-122 -31 -217 -148 -217 -271 0 -206 200 -340 389 -258 94 40 171 155 171 254 0 168 -183 314 -343 275z"></path>
      <path id="pX4SdC03S" d="M4039 1137 c-210 -59 -273 -333 -109 -480 54 -49 103 -67 180 -67 86 0 129 18 192 81 67 66 94 137 85 224 -17 164 -192 285 -348 242z"></path>
      <path id="pb8zyLC23" d="M4832 1132 c-67 -24 -119 -66 -157 -127 -28 -45 -30 -56 -30 -139 0 -74 4 -99 22 -131 85 -159 298 -197 434 -77 66 58 104 170 88 259 -30 161 -208 267 -357 215z"></path>
      <path id="p1Go61blXS" d="M3202 1125 c-98 -43 -173 -152 -173 -251 0 -164 118 -287 276 -287 144 1 261 107 281 256 14 102 -59 226 -161 273 -59 28 -169 32 -223 9z"></path>
    </g>
  </g>
</svg>