<svg class="img-fluid" id="outputsvg" xmlns="http://www.w3.org/2000/svg" style="transform: none; transform-origin: 50% 50%; cursor: move;" width="461" height="478" viewBox="0 0 4610 4780">
  <g id="l4BW1nolqQBGyNaBYfV6hV3" fill="rgb(255,255,255)" style="transform: none;">
    <g>
      <path id="pZ8x0KXkr" d="M530 4602 l0 -127 -76 -13 c-41 -6 -96 -21 -122 -32 -111 -49 -205 -153 -251 -274 -21 -56 -32 -169 -18 -183 5 -4 1025 -10 2268 -11 l2259 -4 0 65 c0 225 -178 421 -395 435 -72 4 -73 5 -79 35 -3 16 -6 76 -6 133 l0 104 -460 0 -460 0 0 -135 0 -135 -865 0 -865 0 0 135 0 135 -465 0 -465 0 0 -128z"></path>
      <path id="p1zYyHbrv" d="M1394 3672 l-1341 -2 3 -984 c2 -704 6 -996 14 -1028 37 -139 158 -271 301 -329 44 -18 80 -23 202 -27 l147 -4 0 -139 0 -139 135 0 135 0 0 -73 c0 -178 91 -337 238 -415 76 -40 140 -52 277 -52 l115 0 0 130 0 130 -99 0 c-89 0 -104 3 -152 28 -45 23 -58 37 -81 82 -15 30 -30 81 -34 112 l-6 58 135 0 135 0 7 83 c4 46 5 109 4 140 l-4 57 607 0 608 0 2 -187 3 -188 570 0 570 0 3 187 2 188 143 0 c214 0 287 24 402 131 50 47 75 81 108 147 l42 85 3 1004 2 1003 -797 2 c-439 0 -856 1 -928 2 -71 1 -733 0 -1471 -2z m2904 -1044 l-3 -843 -30 -53 c-32 -59 -66 -91 -129 -125 l-41 -22 -1757 -3 c-1741 -2 -1757 -2 -1811 18 -68 26 -129 77 -155 133 -20 42 -20 66 -26 763 -3 395 -2 776 1 847 l6 127 1974 0 1973 0 -2 -842z m-1008 -1408 l0 -80 -170 0 -170 0 0 80 0 80 170 0 170 0 0 -80z m380 0 l0 -80 -80 0 -80 0 0 80 0 80 80 0 80 0 0 -80z"></path>
      <path id="pBxZ64QVs" d="M2856 3149 c-48 -56 -25 -121 46 -134 18 -3 268 -5 555 -3 l521 3 26 24 c35 33 35 83 1 116 l-24 25 -550 0 -549 0 -26 -31z"></path>
      <path id="pB6DiEdeT" d="M1310 3123 c-107 -55 -142 -189 -74 -285 16 -23 48 -51 71 -62 l42 -21 1 -71 0 -70 -53 -22 c-30 -13 -68 -38 -86 -56 l-33 -34 -47 27 c-126 75 -123 71 -117 121 18 138 -102 270 -245 270 -113 0 -228 -116 -229 -231 0 -94 60 -192 138 -225 l32 -14 0 -93 0 -93 -34 -12 c-66 -24 -126 -115 -126 -190 0 -34 27 -93 58 -125 70 -74 174 -84 262 -24 41 27 67 70 83 133 12 47 12 48 96 83 79 33 84 34 94 16 5 -10 29 -39 51 -63 94 -103 243 -132 364 -72 66 33 118 85 154 152 19 36 23 59 23 134 l0 92 113 56 113 56 27 -18 c15 -10 42 -24 60 -31 l32 -13 0 -87 0 -86 -44 -43 c-53 -50 -70 -95 -64 -168 13 -160 203 -238 324 -132 97 85 98 222 3 302 -17 15 -45 30 -60 33 l-29 6 0 91 0 91 56 49 c68 60 93 111 94 189 0 156 -147 268 -298 227 -66 -17 -145 -99 -166 -170 -10 -33 -14 -71 -11 -95 l6 -40 -100 -52 c-54 -29 -106 -53 -113 -53 -8 0 -25 12 -39 26 -26 28 -97 67 -141 78 -27 6 -28 8 -28 81 0 72 1 75 29 89 42 22 89 80 102 128 32 120 -55 235 -184 246 -43 3 -62 -1 -107 -25z m-202 -727 c2 -3 1 -28 -3 -56 l-7 -52 -87 -40 c-66 -30 -90 -37 -101 -29 -8 6 -30 19 -47 28 l-33 17 0 91 0 90 57 25 57 25 80 -47 c44 -27 81 -50 84 -52z"></path>
      <path id="pH3o0Ck4b" d="M2884 2820 c-28 -11 -54 -48 -54 -77 0 -12 10 -34 23 -49 l23 -27 545 -5 544 -5 33 28 c48 40 44 103 -9 130 -24 13 -111 15 -556 14 -290 0 -538 -4 -549 -9z"></path>
      <path id="phCBnDsel" d="M2859 2451 c-45 -45 -37 -100 18 -129 31 -17 1071 -17 1108 0 15 7 33 24 41 40 12 24 13 32 0 62 -8 19 -23 39 -34 45 -14 8 -193 11 -562 11 l-542 0 -29 -29z"></path>
      <path id="pB4lmmbDg" d="M2884 2120 c-56 -22 -71 -95 -28 -135 l27 -25 539 0 c391 0 545 3 561 12 33 17 46 39 47 75 0 38 -28 68 -72 77 -47 9 -1050 6 -1074 -4z"></path>
      <path id="pu5rJawLc" d="M1810 613 l0 -128 980 4 c540 2 1001 0 1025 -4 88 -13 136 -86 101 -154 -33 -62 -47 -65 -296 -71 l-225 -5 0 -125 0 -125 260 0 260 0 58 27 c36 17 81 51 117 87 194 198 115 529 -144 606 -42 13 -206 15 -1093 15 l-1043 0 0 -127z"></path>
      <path id="p15oqL6cbQ" d="M2990 130 l0 -130 105 0 105 0 0 130 0 130 -105 0 -105 0 0 -130z"></path>
      <path id="peFpBK3Z3" d="M2619 235 c-39 -21 -62 -63 -61 -111 0 -52 23 -87 69 -109 109 -52 222 80 156 182 -33 49 -110 67 -164 38z"></path>
    </g>
  </g>
</svg>