<svg class="img-fluid" id="outputsvg" xmlns="http://www.w3.org/2000/svg" style="transform: none; transform-origin: 50% 50%; cursor: move; max-height: none;" width="578" height="641" viewBox="0 0 5780 6410">
  <g id="l4z4ttvdFK9gYu79lQSs91f" fill="rgb(255,255,255)" style="transform: none;">
    <g style="transform: none;">
      <path id="pwQudtfSx" d="M123 6386 c-48 -26 -56 -80 -19 -123 l24 -28 226 -3 226 -3 0 -165 0 -164 -62 0 c-223 -1 -367 -69 -451 -212 -61 -104 -57 45 -55 -2369 l3 -2204 23 -57 c30 -75 105 -156 182 -197 47 -25 80 -34 148 -41 119 -13 4979 -13 5055 0 129 21 251 111 305 227 l27 58 0 2241 0 2240 -38 76 c-42 87 -107 152 -190 192 -59 29 -186 50 -277 44 l-60 -3 0 168 0 167 215 0 c138 0 223 4 239 11 49 23 57 97 14 136 -19 17 -123 18 -2769 19 -1782 0 -2755 -3 -2766 -10z m4005 -323 l-3 -168 -1242 -2 -1243 -2 0 170 0 169 1245 0 1245 0 -2 -167z m852 -53 l0 -50 -325 0 -325 0 0 45 0 45 323 3 c177 1 323 3 325 5 1 1 2 -20 2 -48z m-3540 -5 l0 -45 -325 0 -325 0 0 45 0 45 325 0 325 0 0 -45z m3945 -429 c19 -8 44 -30 55 -48 20 -33 20 -44 20 -2174 l0 -2141 -23 -34 c-12 -18 -34 -39 -47 -46 -20 -10 -540 -13 -2498 -13 -2272 0 -2476 1 -2502 16 -15 9 -36 31 -46 48 -18 30 -19 92 -19 2171 0 2048 1 2141 18 2173 36 66 -158 61 2545 62 2121 0 2467 -2 2497 -14z"></path>
      <path id="pyGLwr9YV" d="M4443 5334 c-56 -20 -123 -81 -153 -140 l-25 -49 -3 -1140 c-3 -1297 -9 -1200 82 -1290 75 -75 100 -80 396 -80 206 0 251 3 281 17 57 25 115 83 139 140 l22 51 1 1146 2 1146 -26 55 c-31 66 -79 116 -134 141 -35 16 -68 18 -290 18 -194 0 -259 -4 -292 -15z m375 -209 c49 -21 81 -52 103 -100 17 -36 19 -71 19 -397 l0 -358 -66 0 -65 0 1 333 c1 182 -1 340 -5 350 -9 22 -56 47 -88 47 -14 0 -35 -9 -48 -19 l-24 -19 -5 -584 -5 -583 -62 -3 -63 -3 -2 363 c-1 200 -2 474 -2 609 l-1 245 28 43 c53 79 189 116 285 76z m122 -1375 l0 -330 -65 0 -65 0 0 330 0 330 65 0 65 0 0 -330z m-300 -495 l0 -345 -64 0 -63 0 -7 53 c-3 28 -6 184 -6 345 l0 292 70 0 70 0 0 -345z m306 -41 c-3 -9 -6 -81 -6 -160 l0 -144 -59 0 c-44 0 -60 4 -65 16 -3 9 -6 81 -6 160 l0 144 71 0 c61 0 70 -2 65 -16z"></path>
      <path id="pL6yUsoLV" d="M734 5251 c-81 -37 -134 -140 -119 -230 9 -52 51 -114 101 -149 l39 -27 1390 -3 c1565 -3 1441 -9 1515 75 22 25 40 50 40 54 0 5 45 9 100 9 l100 0 0 80 0 80 -100 0 c-55 0 -100 4 -100 8 0 18 -75 85 -114 103 -39 18 -99 19 -1426 19 -1326 0 -1387 -1 -1426 -19z"></path>
      <path id="piQ6QKfIm" d="M728 4600 c-78 -42 -128 -142 -113 -229 10 -63 58 -126 117 -155 l52 -26 1377 0 1377 0 53 28 c79 41 114 101 114 198 0 64 -3 77 -30 115 -17 24 -49 52 -75 65 l-45 23 -1395 0 c-1359 0 -1396 0 -1432 -19z"></path>
      <path id="p41x9rKyP" d="M789 3969 c-81 -13 -150 -78 -169 -160 -24 -100 20 -197 111 -243 l53 -26 1371 0 c1562 0 1432 -7 1512 86 l47 54 93 0 93 0 0 75 0 75 -94 0 -94 0 -28 38 c-34 44 -48 56 -96 82 -35 19 -70 20 -1401 22 -750 2 -1379 0 -1398 -3z"></path>
      <path id="pvVlHAfxs" d="M758 3316 c-59 -21 -85 -42 -114 -92 -60 -102 -27 -238 71 -299 l48 -30 1397 0 1397 0 48 30 c157 97 130 342 -44 394 -60 18 -2753 15 -2803 -3z"></path>
      <path id="pqqiXqsof" d="M729 2657 c-54 -28 -104 -99 -113 -159 -14 -91 39 -193 119 -229 38 -18 103 -19 1429 -19 l1390 0 43 21 c24 12 58 39 75 60 l31 39 99 0 98 0 0 80 0 80 -97 1 -98 0 -30 47 c-22 34 -45 55 -84 75 l-55 27 -1381 0 -1382 0 -44 -23z"></path>
      <path id="phP2VKfPm" d="M4668 2483 c-14 -4 -18 -15 -18 -58 l0 -54 -57 -16 c-85 -25 -131 -51 -195 -113 -60 -57 -121 -161 -134 -228 l-6 -34 -74 -1 c-41 -1 -80 -2 -86 -3 -9 -1 -14 -25 -16 -73 l-3 -73 89 0 90 0 11 -46 c37 -144 150 -262 304 -315 l67 -24 0 -72 0 -73 80 0 79 0 3 76 3 77 40 12 c146 43 275 175 314 322 l12 42 82 3 82 3 1 65 c1 62 0 65 -25 71 -14 4 -54 7 -87 8 l-61 1 -7 38 c-7 43 -52 135 -91 186 -34 45 -143 118 -212 142 l-52 18 -6 57 c-6 47 -11 58 -28 63 -25 6 -73 6 -99 -1z m-18 -318 l0 -45 75 0 75 0 0 46 0 45 51 -28 c65 -35 133 -110 153 -170 24 -71 17 -219 -12 -237 -5 -3 -53 35 -108 84 -106 96 -151 124 -181 114 -33 -12 -53 -37 -53 -65 0 -23 20 -45 122 -131 67 -57 122 -108 122 -113 -1 -11 -73 -55 -91 -55 -9 0 -13 16 -13 45 l0 45 -70 0 -70 0 0 -45 c0 -39 -3 -45 -20 -45 -53 0 -148 78 -188 154 -24 45 -27 62 -27 146 0 86 3 100 29 147 35 64 66 94 131 127 69 35 75 34 75 -19z"></path>
      <path id="por3gSmMC" d="M756 2025 c-44 -15 -100 -66 -124 -110 -38 -72 -12 -194 55 -257 65 -62 -30 -58 1480 -58 1319 0 1380 1 1419 19 81 37 131 132 122 231 -6 65 -44 121 -105 157 l-48 28 -1380 2 c-1157 2 -1386 0 -1419 -12z"></path>
      <path id="pYIJymBGg" d="M500 648 l0 -68 79 0 79 0 4 -187 c3 -183 4 -190 31 -246 16 -31 44 -69 62 -83 71 -54 72 -54 814 -54 429 0 700 4 722 10 52 15 99 49 134 98 l30 44 3 209 3 209 90 0 89 0 0 64 0 64 -37 6 c-21 3 -503 5 -1070 4 l-1033 -1 0 -69z m1755 -113 l0 -50 -245 0 c-135 0 -444 1 -687 3 l-443 2 0 50 0 50 688 -2 687 -3 0 -50z m-632 -195 l637 0 0 -45 0 -45 -692 2 -693 3 -3 33 c-6 58 2 66 61 58 28 -3 339 -6 690 -6z"></path>
      <path id="pWCDbgj25" d="M3130 650 l0 -70 90 0 90 0 0 -197 0 -198 30 -52 c34 -60 84 -97 150 -113 31 -7 259 -10 740 -8 695 3 695 3 736 25 48 26 90 72 115 128 16 34 19 68 19 228 l0 187 85 0 86 0 -3 68 -3 67 -1067 3 -1068 2 0 -70z m1768 -112 c4 -59 -1 -61 -148 -54 -58 2 -360 5 -672 5 l-568 1 0 43 c0 24 3 47 7 50 3 4 315 6 692 5 l686 -3 3 -47z m-15 -196 c13 -3 17 -15 17 -48 l0 -44 -692 2 -693 3 -3 42 -3 43 428 3 c551 4 923 4 946 -1z"></path>
    </g>
  </g>
</svg>