<svg class="img-fluid" id="outputsvg" xmlns="http://www.w3.org/2000/svg" style="transform: none; transform-origin: 50% 50%; cursor: move; max-height: 319px;" width="400" height="400" viewBox="0 0 4000 4000">
  <g id="l6cLdYEvV5h2MJ4hnPosDo4" fill="rgb(255,255,255)" style="transform: none;">
    <g>
      <path id="p8bn2bcsz" d="M1611 3954 c-13 -16 -19 -35 -16 -52 17 -104 26 -245 16 -251 -12 -8 -301 -34 -308 -28 -2 3 -22 69 -44 148 -42 151 -58 179 -106 179 -13 0 -33 -5 -43 -10 -41 -22 -42 -42 -10 -191 16 -78 30 -147 30 -154 0 -13 -103 -37 -108 -25 -2 5 -27 55 -55 112 -56 110 -83 136 -130 124 -15 -3 -34 -18 -43 -31 -16 -24 -15 -31 16 -128 18 -56 33 -108 34 -115 1 -8 -31 -25 -78 -43 -134 -49 -228 -100 -282 -154 -77 -76 -87 -146 -34 -225 59 -87 275 -468 331 -585 108 -225 156 -379 183 -590 35 -261 8 -514 -81 -775 -40 -118 -67 -178 -209 -463 -139 -277 -146 -299 -122 -368 30 -89 106 -139 284 -188 225 -63 478 -94 902 -112 609 -25 1229 35 1527 148 89 33 157 97 175 163 18 66 2 117 -87 282 -181 337 -274 570 -315 796 -28 155 -30 440 -4 582 55 301 134 487 397 931 137 233 151 267 129 333 -25 75 -172 172 -347 227 -40 13 -73 28 -73 34 0 6 14 51 30 100 37 111 38 137 4 164 -29 23 -55 26 -82 12 -9 -5 -42 -59 -72 -121 l-55 -112 -50 7 c-27 3 -51 8 -54 10 -2 2 9 69 24 147 16 80 25 155 22 169 -7 26 -43 49 -76 49 -40 0 -60 -33 -96 -162 -53 -189 -45 -177 -102 -168 -27 5 -95 11 -152 15 l-104 8 7 121 c4 66 9 130 12 141 8 33 -31 75 -70 75 -57 0 -65 -14 -99 -175 -18 -82 -35 -148 -39 -147 -5 1 -95 2 -201 2 l-192 0 -29 138 c-34 165 -42 182 -96 182 -30 0 -43 -6 -59 -26z m219 -461 c0 -10 5 -67 10 -128 47 -522 75 -1469 65 -2182 l-7 -483 30 -30 c37 -36 96 -41 133 -11 l24 19 1 734 c0 407 5 862 12 1023 12 278 45 850 59 1004 l6 73 36 -6 c20 -3 68 -6 106 -6 39 0 75 -4 81 -8 9 -5 7 -42 -7 -142 -64 -456 -97 -741 -129 -1135 -36 -438 -28 -1046 20 -1418 11 -89 18 -105 61 -141 65 -55 160 -18 145 56 -55 262 -77 471 -83 783 -4 204 -1 318 11 465 16 194 48 454 66 540 5 25 21 108 35 185 14 77 30 154 35 170 4 17 20 84 35 150 27 121 72 296 101 393 13 46 18 52 42 52 29 0 183 -28 190 -34 2 -2 -42 -138 -97 -303 -150 -444 -213 -711 -267 -1123 -25 -188 -25 -642 0 -820 38 -274 74 -443 107 -497 22 -35 68 -67 112 -78 49 -13 83 37 58 84 -16 29 -78 250 -100 356 -99 475 -55 1083 121 1635 70 223 252 690 268 690 4 0 23 -6 41 -14 19 -7 42 -16 52 -19 16 -6 15 -11 -12 -64 -48 -96 -241 -588 -223 -568 9 10 170 286 281 483 l53 92 43 -31 c51 -37 55 -20 -40 -174 -259 -420 -418 -785 -479 -1100 -55 -281 -47 -689 19 -965 51 -213 105 -357 156 -414 57 -65 149 -97 157 -54 2 9 -13 54 -33 100 -51 116 -78 185 -67 173 25 -27 214 -415 209 -428 -3 -9 -18 -24 -33 -33 -24 -16 -28 -16 -38 -2 -40 55 -227 98 -571 134 -217 22 -786 30 -1042 15 -434 -26 -749 -88 -784 -153 -10 -18 -11 -18 -40 -1 -16 10 -32 27 -35 38 -3 13 35 98 106 238 60 119 110 213 110 208 0 -5 -25 -70 -56 -145 -31 -75 -54 -143 -50 -151 17 -46 133 19 183 104 49 83 121 320 165 546 18 96 18 572 0 675 -77 427 -201 725 -531 1270 l-51 85 27 23 c62 51 47 67 229 -253 92 -162 169 -293 171 -291 7 7 -145 393 -220 558 l-35 76 54 23 c30 12 57 19 60 17 10 -10 96 -226 174 -433 153 -411 218 -681 255 -1061 38 -394 1 -734 -122 -1121 -41 -127 -38 -143 25 -143 47 0 97 33 126 83 22 38 59 181 85 332 25 139 41 360 41 550 0 486 -80 914 -286 1534 -57 173 -103 316 -101 318 3 2 51 13 107 24 80 15 105 17 111 7 10 -15 161 -631 188 -763 79 -394 106 -625 117 -990 8 -248 -14 -568 -52 -795 -41 -235 -41 -235 -10 -255 51 -34 129 -7 161 55 45 87 74 672 56 1153 -9 275 -38 666 -56 787 -3 19 -12 91 -20 160 -16 143 -59 463 -80 595 -8 49 -12 92 -9 95 3 3 47 8 97 11 51 3 102 6 115 7 15 1 22 -4 22 -15z m-495 -3208 c319 -41 1032 -39 1355 4 133 18 136 18 234 -2 72 -15 93 -23 79 -28 -28 -10 -249 -47 -358 -59 -363 -40 -1031 -35 -1375 10 -120 16 -264 42 -273 50 -12 10 154 49 188 44 17 -2 84 -11 150 -19z"></path>
    </g>
  </g>
</svg>