<svg class="img-fluid" id="outputsvg" xmlns="http://www.w3.org/2000/svg" style="transform: none; transform-origin: 50% 50%; cursor: move; max-height: 319px;" width="400" height="400" viewBox="0 0 4000 4000">
  <g id="l4fq0OeJQPAHBwAVH7pY774" fill="rgb(255,255,255)" style="transform: none;">
    <g>
      <path id="ptpLNy0hF" d="M237 3969 c-39 -23 -47 -69 -47 -264 0 -289 -3 -285 258 -285 l184 0 -4 -75 c-2 -41 0 -75 5 -75 4 0 42 17 85 39 137 68 321 123 477 141 451 51 884 -93 1200 -401 126 -123 216 -246 294 -404 113 -227 161 -429 161 -671 0 -224 -41 -406 -136 -612 -84 -180 -240 -385 -377 -494 l-49 -38 371 0 c368 0 370 0 450 25 151 48 283 158 355 295 65 124 66 133 66 689 l0 501 65 0 65 0 0 -150 c0 -141 1 -150 21 -160 16 -9 26 -8 45 5 24 15 24 18 24 165 l0 150 35 0 35 0 0 -360 0 -360 -80 0 -80 0 0 -80 0 -80 155 0 c142 0 155 1 165 19 6 13 10 188 10 500 0 422 -2 481 -16 495 -23 24 -48 27 -184 24 l-125 -3 -3 -47 -3 -48 -65 0 -64 0 0 116 c0 73 -6 139 -16 177 -51 199 -211 362 -400 411 l-49 12 0 145 0 144 192 5 193 5 27 28 28 27 3 220 3 220 -30 30 -29 30 -1599 0 c-1118 -1 -1604 -4 -1616 -11z m3108 -271 l3 -118 -1494 0 -1494 0 0 120 0 120 1491 -2 1491 -3 3 -117z m-329 -727 c155 -23 283 -135 328 -288 l15 -53 -87 0 -87 1 -26 38 c-16 23 -47 48 -80 65 -49 24 -63 26 -175 26 l-122 0 -64 102 c-34 57 -64 106 -66 110 -5 11 289 10 364 -1z m344 -1036 l0 -505 -234 0 -234 0 27 70 26 70 133 0 132 0 3 203 c1 111 0 278 -2 371 -1 92 0 197 4 232 l7 64 69 0 69 0 0 -505z m-10 -605 c0 -34 -37 -118 -74 -169 -21 -28 -64 -68 -98 -91 -94 -62 -136 -71 -342 -68 l-177 3 73 103 72 102 102 0 c55 0 116 5 135 11 50 17 98 56 116 95 l17 34 88 0 c81 0 88 -2 88 -20z"></path>
      <path id="pKFtgKKMC" d="M1225 3324 c-84 -13 -198 -39 -270 -61 -465 -147 -827 -551 -925 -1036 -19 -94 -22 -131 -18 -280 7 -233 43 -375 150 -578 144 -276 411 -518 696 -632 l42 -17 0 -65 0 -65 -115 0 c-163 0 -155 12 -155 -234 0 -107 3 -202 6 -211 18 -45 24 -45 739 -45 l677 0 29 29 29 29 0 196 c0 248 8 236 -155 236 l-115 0 0 64 0 63 124 61 c402 198 665 550 745 1001 25 138 26 240 5 375 -47 294 -167 540 -365 749 -148 157 -290 254 -487 331 -153 61 -284 87 -457 91 -82 2 -163 1 -180 -1z m186 -94 c6 0 21 -12 34 -26 22 -24 25 -36 25 -109 l0 -82 61 -7 c154 -18 344 -98 474 -201 181 -143 325 -380 371 -610 26 -128 15 -115 95 -115 65 0 73 -2 100 -29 39 -40 40 -89 1 -132 -25 -28 -35 -32 -99 -36 l-71 -6 -12 -61 c-42 -224 -138 -410 -290 -564 -153 -155 -351 -259 -560 -293 l-70 -12 0 -79 c0 -78 -1 -81 -34 -114 -25 -24 -43 -34 -66 -34 -23 0 -41 10 -66 34 -33 33 -34 37 -34 113 l0 78 -87 16 c-327 61 -608 277 -753 581 -40 82 -90 255 -90 308 0 27 -1 27 -75 32 -84 6 -119 26 -130 78 -7 30 15 92 36 106 8 5 47 11 88 14 l75 5 27 110 c31 131 44 165 97 270 101 201 272 366 478 461 73 34 256 84 307 84 27 0 27 0 27 73 0 87 22 131 72 146 18 5 39 7 46 5 8 -2 18 -4 23 -4z m529 -2832 c0 -53 3 -103 6 -112 6 -14 -49 -16 -570 -16 l-576 0 0 113 0 112 570 0 570 0 0 -97z"></path>
      <path id="phEB5FU4k" d="M1235 2883 c-300 -48 -546 -228 -680 -498 -75 -153 -90 -222 -89 -420 0 -168 0 -171 35 -272 48 -137 116 -247 213 -345 129 -128 261 -204 449 -256 96 -26 316 -23 427 6 283 75 518 280 624 546 157 392 15 859 -333 1095 -148 101 -280 141 -476 146 -77 2 -153 1 -170 -2z m129 -143 c-100 -57 -166 -161 -172 -271 -4 -67 17 -169 41 -198 9 -11 9 -15 -1 -19 -7 -2 -27 -16 -44 -30 l-31 -26 -44 49 c-123 136 -136 300 -33 418 60 68 153 103 280 106 l55 1 -51 -30z m421 -81 c39 -21 175 -146 175 -161 0 -5 -12 0 -27 9 -22 14 -48 18 -133 18 -98 0 -109 -2 -159 -30 -61 -34 -114 -95 -150 -173 -17 -36 -29 -51 -39 -47 -7 3 -32 5 -54 5 l-41 0 5 73 c8 126 99 268 201 312 51 23 174 19 222 -6z m-968 -212 c-1 -80 3 -100 27 -152 33 -72 101 -140 181 -179 54 -26 57 -29 51 -58 -3 -17 -6 -42 -6 -56 0 -24 -1 -25 -64 -20 -84 7 -162 44 -230 108 -125 118 -127 265 -5 404 23 25 42 46 43 46 2 0 3 -42 3 -93z m1140 -120 c58 -22 117 -72 145 -123 26 -48 48 -147 47 -209 l0 -30 -17 25 c-33 51 -111 118 -168 146 -83 40 -186 41 -264 2 -40 -20 -56 -24 -62 -15 -3 7 -18 28 -32 47 l-26 34 37 38 c21 22 65 52 97 68 51 26 70 30 135 29 42 0 90 -6 108 -12z m-1263 -434 c95 -84 232 -107 349 -59 l57 24 11 -22 c7 -11 21 -32 33 -45 l21 -23 -54 -49 c-92 -83 -202 -108 -316 -74 -83 26 -137 71 -179 152 -19 37 -38 168 -29 201 5 20 8 18 32 -21 15 -23 49 -61 75 -84z m1141 70 c109 -38 192 -121 221 -220 24 -84 3 -150 -84 -265 -20 -27 -39 -48 -42 -48 -3 0 -4 33 -2 74 9 165 -77 297 -229 352 l-45 17 15 59 16 59 55 -7 c30 -4 73 -13 95 -21z m-126 -343 c35 -73 36 -184 4 -246 -52 -97 -165 -163 -296 -171 l-82 -5 51 35 c110 76 174 184 174 290 0 29 -11 83 -24 122 l-24 70 36 32 37 33 49 -53 c27 -28 61 -77 75 -107z m-321 27 c7 -88 -58 -224 -139 -287 -99 -79 -218 -92 -316 -35 -43 26 -159 133 -151 140 2 2 28 -3 58 -12 71 -19 183 -12 244 16 61 26 136 104 168 172 l27 55 53 -6 53 -5 3 -38z"></path>
    </g>
  </g>
</svg>