<svg class="img-fluid" id="outputsvg" xmlns="http://www.w3.org/2000/svg" style="transform: none; transform-origin: 50% 50%; cursor: move;" width="563" height="757" viewBox="0 0 5630 7570">
  <g id="lACBxCaHvy8en8GUsqhEEc" fill="rgb(255,255,255)" style="transform: none;">
    <g>
      <path id="p2eFVxzgX" d="M515 7406 c-123 -74 -116 -267 13 -343 l47 -28 2355 -3 c2634 -3 2407 -9 2474 70 39 45 61 120 51 170 -10 47 -50 112 -82 134 -27 18 -92 19 -2423 21 l-2395 3 -40 -24z"></path>
      <path id="pCFLEXIpp" d="M2623 6813 l-1683 -3 -35 -48 c-79 -108 -176 -340 -221 -532 -17 -70 -18 -188 -21 -1822 -4 -1901 -5 -1833 52 -2033 51 -181 185 -417 327 -577 161 -182 426 -351 683 -437 l90 -30 3 -391 2 -390 -86 0 c-158 0 -184 -29 -184 -207 0 -101 3 -123 20 -151 37 -61 48 -62 480 -62 504 0 480 -10 480 200 0 119 -1 128 -25 160 -39 52 -59 59 -172 60 l-103 0 0 390 0 390 175 0 175 0 2 -202 3 -203 358 -3 357 -2 0 205 0 205 178 -2 177 -3 3 -388 3 -387 -101 0 c-109 0 -137 -9 -180 -55 -24 -25 -25 -34 -28 -155 -4 -142 1 -160 51 -190 30 -19 54 -20 432 -20 384 0 401 1 433 20 50 30 62 71 62 205 l0 115 -34 38 -34 37 -104 5 c-57 3 -102 8 -100 13 1 4 2 177 2 385 l0 378 88 28 c266 86 545 267 716 465 167 193 295 458 343 711 17 89 18 197 17 1835 -2 1940 3 1812 -72 2038 -42 128 -125 297 -180 367 l-37 47 -315 -1 c-173 0 -1072 -2 -1997 -3z m-1058 -427 c18 -8 42 -27 52 -42 17 -27 18 -61 16 -611 -3 -648 0 -625 -70 -658 -33 -16 -41 -16 -77 -4 -25 9 -49 27 -63 48 l-23 35 2 587 3 587 25 27 c42 46 79 54 135 31z m475 -1 c52 -27 58 -52 64 -280 3 -116 2 -495 -1 -844 l-6 -633 -32 -34 c-27 -28 -40 -34 -73 -34 -51 0 -97 36 -112 88 -8 25 -10 296 -8 854 3 811 3 817 24 845 39 52 91 66 144 38z m502 -24 c16 -18 29 -47 33 -73 4 -24 5 -288 3 -588 -3 -486 -5 -548 -20 -575 -44 -82 -161 -76 -202 10 -14 29 -16 103 -16 597 0 527 1 566 18 598 39 73 132 89 184 31z m433 25 c19 -8 44 -30 55 -48 20 -32 20 -48 20 -856 0 -742 -2 -827 -16 -858 -28 -59 -95 -80 -154 -49 -63 32 -60 -7 -60 908 l0 834 22 28 c19 24 68 53 91 55 4 0 23 -6 42 -14z m485 -1 c61 -32 60 -18 60 -654 0 -390 -3 -588 -11 -603 -17 -36 -57 -60 -99 -60 -50 1 -76 15 -100 55 -19 31 -20 55 -20 607 0 559 1 576 20 608 20 32 67 61 103 62 10 0 31 -7 47 -15z m482 -9 c49 -30 48 -17 48 -911 l0 -838 -36 -33 c-56 -53 -131 -44 -175 22 -18 28 -19 55 -19 854 0 765 1 828 18 860 30 62 106 83 164 46z m440 14 c23 -7 46 -23 60 -43 l23 -32 3 -570 c2 -415 -1 -577 -9 -597 -33 -79 -130 -104 -191 -49 l-33 29 -3 589 c-2 576 -2 589 18 621 11 18 35 39 53 47 39 17 34 17 79 5z m398 -3012 c0 -486 -4 -787 -11 -828 -55 -339 -316 -650 -638 -761 -52 -18 -109 -19 -1225 -19 l-1171 0 -60 31 c-153 80 -306 217 -399 358 -110 164 -160 308 -176 501 -5 63 -10 422 -10 798 l0 682 1845 0 1845 0 0 -762z"></path>
      <path id="pQLIwnPwn" d="M2105 3871 c-47 -21 -85 -81 -85 -133 0 -47 36 -98 85 -123 39 -20 60 -20 840 -20 l800 0 37 23 c37 23 78 90 78 127 0 43 -41 104 -84 124 -42 21 -55 21 -837 21 -747 0 -796 -2 -834 -19z"></path>
      <path id="p1AjJqmDVR" d="M1702 3380 c-78 -35 -103 -139 -50 -212 60 -86 189 -74 239 22 38 71 13 150 -61 188 -54 27 -73 27 -128 2z"></path>
      <path id="pRhjrNlTf" d="M2174 3386 c-127 -57 -99 -258 39 -273 89 -10 157 51 159 142 2 99 -108 172 -198 131z"></path>
      <path id="p11gPCifoJ" d="M3522 3352 c-36 -11 -88 -58 -105 -95 -14 -29 -17 -72 -17 -264 0 -217 1 -231 23 -273 13 -26 36 -53 57 -65 33 -19 52 -20 360 -20 310 0 327 1 365 21 26 13 49 37 65 65 24 43 25 51 28 264 3 213 2 221 -20 265 -13 26 -41 57 -66 75 l-44 30 -311 2 c-172 1 -322 -2 -335 -5z m181 -184 c42 -22 46 -38 47 -169 0 -113 -2 -129 -21 -153 -26 -33 -79 -36 -109 -6 -18 18 -20 33 -20 155 0 131 1 137 25 160 27 28 46 31 78 13z m363 -13 c25 -25 25 -28 22 -159 -4 -156 -13 -176 -79 -176 -61 0 -69 21 -69 178 0 128 1 134 25 157 31 32 69 32 101 0z"></path>
      <path id="p1BtNSQICh" d="M1703 2911 c-78 -36 -106 -142 -55 -210 10 -14 34 -37 53 -49 63 -43 157 -13 193 62 36 77 8 159 -68 195 -52 26 -69 26 -123 2z"></path>
      <path id="pCqILKSDP" d="M2174 2916 c-74 -33 -105 -137 -62 -210 57 -96 171 -98 242 -3 28 37 28 116 0 153 -46 63 -120 87 -180 60z"></path>
      <path id="pYhzKUabi" d="M2807 2871 c-247 -81 -345 -379 -196 -597 39 -57 82 -91 159 -128 59 -28 74 -31 165 -31 90 0 106 3 160 29 77 38 163 124 200 201 25 52 29 72 29 150 1 82 -2 97 -32 161 -42 89 -115 163 -197 200 -81 36 -204 43 -288 15z"></path>
      <path id="pnCGZ1H03" d="M2490 642 c0 -68 3 -82 21 -98 45 -40 59 -87 59 -192 0 -54 2 -101 4 -103 2 -2 47 -3 100 -1 l96 3 0 235 0 234 -140 0 -140 0 0 -78z"></path>
      <path id="pE18qyySr" d="M3110 480 l0 -240 100 0 100 0 0 109 c0 100 2 111 26 146 14 21 32 44 40 52 10 10 14 38 14 94 l0 79 -140 0 -140 0 0 -240z"></path>
    </g>
  </g>
</svg>