<svg class="img-fluid" id="outputsvg" xmlns="http://www.w3.org/2000/svg" style="transform: none; transform-origin: 50% 50%; cursor: move;" width="665" height="665" viewBox="0 0 6650 6650">
  <g id="l5jrdoAHqBZycaz0w1cyg5i" fill="rgb(255,255,255)" style="transform: none;">
    <g>
      <path id="pIHYiDk5Y" d="M181 6604 c-18 -15 -35 -42 -42 -67 -8 -30 -12 -296 -12 -927 0 -487 1 -943 3 -1015 2 -71 2 -465 1 -875 -4 -1225 -1 -2234 7 -2247 5 -8 49 28 132 111 241 237 710 695 1120 1096 670 653 864 843 885 870 20 25 20 45 23 1479 2 799 1 1472 -2 1495 -4 23 -17 55 -30 71 l-24 30 -1015 3 -1015 2 -31 -26z m776 -558 l28 -24 0 -160 0 -160 -33 -32 -33 -31 -159 3 c-159 3 -160 3 -187 31 l-28 27 0 160 0 160 30 24 c28 23 37 24 192 24 158 1 164 1 190 -22z m923 -2 c19 -18 21 -36 26 -172 8 -224 11 -221 -217 -222 -165 0 -166 0 -190 26 -23 25 -24 30 -24 186 0 213 -11 203 217 203 156 0 169 -1 188 -21z m-919 -963 c17 -21 19 -40 19 -176 0 -150 -1 -154 -26 -184 l-26 -31 -155 0 c-155 0 -184 5 -210 39 -9 11 -12 66 -13 174 0 154 1 159 24 182 24 24 27 24 196 22 167 -2 172 -3 191 -26z m910 16 c37 -28 41 -55 35 -211 -7 -203 1 -196 -215 -196 l-157 0 -30 31 -29 30 0 137 c0 159 6 186 43 206 35 20 328 22 353 3z m-632 -532 c37 -19 49 -55 43 -131 -4 -57 -2 -62 23 -82 15 -12 44 -26 64 -32 34 -9 37 -8 86 39 61 60 82 71 119 64 50 -10 76 -41 76 -91 0 -39 -6 -49 -53 -100 l-53 -57 20 -50 c32 -77 29 -75 117 -75 73 0 82 -2 106 -26 22 -22 25 -32 20 -71 -7 -67 -23 -77 -124 -83 l-85 -5 -31 -69 -31 -69 51 -46 c28 -25 56 -56 63 -69 24 -49 -18 -120 -76 -126 -39 -4 -60 8 -116 62 l-47 45 -43 -12 c-73 -22 -88 -43 -88 -126 0 -99 -19 -125 -87 -118 -71 7 -91 36 -95 132 -3 80 0 75 -77 111 -50 23 -36 29 -133 -58 -40 -35 -53 -41 -75 -36 -36 9 -63 32 -78 69 -17 39 -5 68 52 127 l46 47 -27 70 -27 69 -84 3 c-72 4 -87 7 -109 28 -33 31 -35 87 -5 125 19 25 25 26 110 26 l90 0 24 53 c14 28 25 61 25 71 0 11 -22 42 -49 71 -44 46 -49 56 -46 90 5 48 37 81 89 88 37 6 41 4 97 -54 l58 -60 57 18 c67 21 73 33 67 128 -5 64 -3 72 18 92 21 18 34 23 82 32 4 0 21 -6 36 -14z m-276 -1498 c83 -35 147 -130 147 -217 0 -59 -38 -139 -84 -177 -91 -74 -225 -68 -310 14 -49 48 -62 76 -69 147 -5 50 -2 68 19 112 26 56 68 98 119 120 39 17 137 18 178 1z"></path>
      <path id="p10Fe7B5sZ" d="M1133 4155 c-61 -18 -96 -47 -128 -107 -48 -88 -37 -176 33 -250 104 -110 287 -74 347 67 70 165 -84 342 -252 290z"></path>
      <path id="p16jQp3LnA" d="M2549 6600 l-30 -29 5 -153 c3 -84 8 -265 11 -403 3 -137 8 -315 10 -395 3 -80 9 -329 15 -555 6 -225 12 -495 15 -600 2 -104 9 -291 15 -415 11 -264 28 -704 40 -1055 5 -137 14 -376 19 -530 6 -154 15 -401 21 -549 6 -148 12 -271 14 -273 2 -2 159 -7 347 -10 289 -5 346 -4 355 8 7 9 25 279 48 699 21 377 39 712 41 745 14 208 41 749 50 1025 4 90 7 165 8 166 1 1 57 4 125 5 l122 4 0 -437 c0 -241 3 -438 6 -438 8 0 282 261 392 372 79 81 92 99 138 203 62 139 121 223 233 336 142 142 322 245 506 290 164 39 421 35 597 -10 377 -97 699 -420 815 -818 10 -35 21 -63 26 -63 4 0 7 633 7 1408 0 1394 0 1407 -20 1440 -41 66 103 62 -1995 62 l-1907 0 -29 -30z m1701 -552 c30 -32 32 -49 28 -211 -4 -202 7 -192 -224 -192 l-176 0 -24 28 c-23 27 -24 33 -24 185 1 108 4 162 13 173 26 34 52 38 219 39 160 0 168 -1 188 -22z m580 12 c5 0 18 -10 30 -22 18 -20 20 -35 20 -174 0 -146 -1 -154 -23 -180 l-24 -28 -166 -3 -165 -3 -31 29 -31 29 0 146 c0 81 4 146 9 146 5 0 7 8 4 18 -8 32 33 42 192 45 83 1 156 1 163 0 8 -2 18 -3 22 -3z m617 -14 l28 -24 3 -155 3 -155 -28 -31 c-33 -36 -20 -34 -210 -32 l-152 1 -15 28 c-11 20 -15 73 -17 197 l-3 170 25 12 c16 9 76 13 181 13 151 0 158 -1 185 -24z m606 -7 c15 -18 17 -44 17 -181 0 -155 -1 -159 -25 -183 -23 -24 -28 -25 -179 -25 -85 0 -166 4 -180 10 -45 17 -56 56 -56 202 0 140 8 174 46 193 12 6 90 9 190 8 160 -2 170 -3 187 -24z m-1807 -951 c14 -14 16 -41 16 -184 l-1 -169 -26 -22 c-25 -22 -35 -23 -175 -23 -122 0 -151 3 -164 16 -9 8 -16 20 -16 25 0 5 -9 9 -19 9 -25 0 -28 20 -27 181 1 190 2 190 233 187 135 -3 165 -6 179 -20z m609 -3 c24 -24 25 -28 25 -180 l0 -157 -29 -28 -29 -29 -172 2 c-222 3 -209 -9 -210 208 0 150 1 157 23 181 23 25 25 25 196 27 170 1 172 1 196 -24z m596 6 c23 -19 24 -25 27 -180 l4 -160 -37 -36 -36 -37 -159 3 c-159 4 -160 4 -187 32 -28 27 -28 28 -31 181 l-3 153 26 31 27 32 173 0 c155 0 175 -2 196 -19z m594 -6 c24 -24 25 -28 25 -180 l0 -157 -29 -29 -29 -29 -157 0 -157 0 -29 29 c-29 29 -29 31 -28 138 1 130 12 216 28 221 7 2 17 10 24 18 9 10 50 13 170 14 155 0 158 -1 182 -25z"></path>
      <path id="p8cZVuuqk" d="M5150 4400 c-17 -17 -20 -33 -20 -97 0 -77 -1 -78 -33 -99 -70 -45 -119 -47 -148 -7 -28 36 -90 83 -112 83 -24 0 -203 -171 -253 -242 -24 -33 -25 -41 -15 -66 6 -15 32 -45 56 -67 31 -27 45 -46 45 -64 0 -34 -30 -111 -44 -112 -6 0 -41 0 -78 1 -64 1 -98 -8 -125 -36 -10 -9 -13 -58 -13 -182 0 -209 -2 -205 131 -210 50 -2 92 -9 97 -15 18 -23 43 -116 35 -131 -4 -7 -32 -35 -60 -61 -62 -55 -65 -75 -24 -131 40 -55 213 -222 231 -224 32 -5 43 2 100 56 54 51 61 55 92 49 18 -4 49 -16 69 -26 l36 -18 7 -93 c4 -62 11 -97 21 -108 13 -12 51 -16 200 -18 l185 -3 25 25 c23 23 25 33 25 111 l0 86 53 24 c28 14 61 25 72 25 12 0 43 -22 70 -51 64 -65 78 -72 107 -57 13 6 76 67 141 134 87 92 117 129 117 149 0 18 -17 41 -60 82 -67 63 -72 79 -39 148 l21 45 94 0 c136 0 134 -3 134 204 0 212 0 212 -130 218 -101 3 -109 9 -131 86 l-12 43 61 62 c38 39 62 71 62 85 0 21 -77 110 -188 216 -89 85 -87 85 -167 10 -38 -35 -73 -64 -79 -64 -19 0 -113 48 -122 61 -4 8 -9 39 -10 69 -1 30 -3 65 -3 77 -2 49 -19 53 -217 53 -171 0 -185 -1 -204 -20z m368 -435 c32 -10 52 -22 52 -31 0 -9 5 -12 10 -9 25 15 138 -86 188 -166 39 -64 62 -157 62 -252 0 -149 -41 -249 -142 -349 -66 -65 -113 -92 -208 -119 -83 -24 -154 -24 -258 1 -102 24 -131 39 -195 99 -209 194 -219 518 -21 715 70 70 183 130 227 120 17 -4 27 -1 27 6 0 18 191 7 258 -15z"></path>
      <path id="p17WUA4ub8" d="M2717 1363 c-13 -12 -7 -189 8 -248 54 -204 251 -355 466 -355 l56 0 38 -57 c76 -115 164 -176 295 -204 100 -21 241 7 320 66 19 14 37 22 41 18 4 -5 14 -33 23 -63 8 -31 33 -83 54 -116 71 -109 164 -170 305 -201 67 -14 89 -15 149 -5 38 7 93 22 121 34 47 21 157 100 165 120 9 22 30 1 61 -62 78 -164 245 -270 422 -270 197 0 352 97 440 275 36 73 43 96 47 165 9 156 -44 288 -158 394 -34 31 -65 56 -70 56 -5 0 -15 6 -22 13 -22 21 -128 49 -209 54 -61 5 -91 1 -150 -17 -89 -26 -127 -49 -196 -113 l-51 -48 -7 33 c-33 151 -198 303 -363 335 -119 23 -265 -11 -358 -82 -18 -14 -39 -25 -46 -25 -8 0 -26 26 -40 58 -36 77 -80 127 -152 174 -120 78 -124 78 -685 78 -274 0 -501 -3 -504 -7z"></path>
    </g>
  </g>
</svg>