<svg class="img-fluid" id="outputsvg" xmlns="http://www.w3.org/2000/svg" style="transform: none; transform-origin: 50% 50%; cursor: move;" width="611" height="658" viewBox="0 0 6110 6580">
  <g id="l4G4zzp8z2nakfqaE3IEJ0B" fill="rgb(255,255,255)" style="transform: none;">
    <g>
      <path id="pmGv3s2Sh" d="M104 6485 c-35 -35 -33 -96 2 -124 25 -19 40 -21 200 -21 l174 0 0 -154 c0 -142 2 -155 23 -187 43 -65 64 -69 330 -69 l237 0 0 -209 0 -208 -93 -7 c-183 -12 -360 -79 -512 -193 -217 -161 -387 -439 -440 -716 -18 -95 -22 -760 -5 -867 57 -357 312 -700 633 -850 100 -47 181 -68 300 -77 l88 -6 -2 -316 c-3 -351 -2 -358 63 -380 21 -7 231 -11 637 -11 557 0 609 1 641 18 67 33 70 49 70 390 l0 302 485 0 485 0 -2 -942 -3 -943 -24 -50 c-37 -74 -121 -158 -190 -189 -95 -42 -189 -50 -556 -43 -181 4 -346 11 -366 17 -61 17 -162 85 -206 139 -75 90 -77 104 -81 549 l-3 392 115 0 c114 0 116 1 148 29 28 25 33 36 33 75 0 38 -5 51 -33 78 l-32 33 -475 3 c-525 3 -527 3 -565 -60 -24 -40 -25 -71 -3 -109 23 -38 34 -42 140 -49 l92 -5 4 -490 c3 -474 4 -493 26 -565 97 -324 392 -571 716 -600 137 -13 1063 -12 1150 0 319 47 604 300 701 625 17 56 18 133 21 1083 l4 1022 559 0 c345 0 588 4 637 11 226 31 485 197 646 413 72 99 158 272 192 390 41 142 48 244 42 603 -4 288 -7 338 -25 408 -58 226 -150 394 -315 578 -154 172 -410 290 -644 299 l-83 3 0 213 0 212 233 0 c260 0 281 5 324 69 21 32 23 45 23 187 l0 154 165 0 c184 0 213 7 234 58 8 20 9 36 2 55 -22 58 201 54 -2975 55 l-2918 1 -24 -24z m4106 -764 l0 -208 -52 -7 c-29 -3 -542 -6 -1140 -6 l-1088 0 0 215 0 215 1140 0 1140 0 0 -209z m-3370 -466 c16 -8 34 -23 39 -33 5 -10 12 -352 15 -802 l7 -785 152 0 152 0 5 787 5 786 24 26 c32 34 80 42 119 22 66 -34 62 19 62 -843 l0 -784 158 3 157 3 5 788 5 789 33 29 c50 45 121 36 159 -20 17 -24 18 -80 21 -808 l3 -783 153 0 153 0 6 557 c4 306 7 660 7 786 l0 229 34 34 c37 37 74 44 120 23 57 -26 56 -7 56 -853 l0 -776 160 0 160 0 2 785 3 785 33 32 c27 27 40 33 76 33 53 0 82 -22 96 -74 6 -23 10 -321 10 -798 l0 -763 244 0 c237 0 244 -1 277 -23 21 -14 39 -38 48 -63 13 -37 12 -44 -5 -80 -13 -27 -32 -46 -64 -61 -42 -22 -56 -23 -272 -23 l-228 0 0 -117 c0 -137 -11 -184 -47 -213 -42 -33 -98 -27 -139 14 l-34 34 0 141 0 141 -160 0 -160 0 0 -141 0 -141 -34 -34 c-38 -38 -77 -44 -125 -19 -46 23 -61 77 -61 215 l0 120 -155 0 -155 0 0 -134 c0 -122 -2 -136 -23 -167 -43 -65 -131 -65 -174 0 -21 31 -23 45 -23 167 l0 134 -155 0 c-85 0 -155 -1 -156 -2 0 -2 -3 -64 -6 -138 -6 -145 -16 -179 -60 -199 -45 -21 -83 -13 -119 23 l-34 34 0 141 0 141 -155 0 -155 0 0 -120 c0 -132 -14 -187 -55 -214 -50 -33 -126 -10 -156 45 -7 14 -10 347 -9 1056 1 1130 -2 1075 58 1107 35 20 66 20 102 1z m-270 -375 c35 -35 28 -109 -20 -187 -46 -77 -86 -191 -100 -288 -5 -38 -10 -156 -10 -261 0 -178 2 -197 25 -270 14 -44 41 -104 61 -136 50 -83 53 -110 16 -148 -35 -34 -65 -38 -104 -12 -50 33 -85 91 -140 235 l-32 82 -4 243 c-3 198 0 258 13 325 31 155 107 324 181 403 37 40 83 45 114 14z m3441 -169 l29 -29 0 -437 c0 -479 0 -480 -59 -505 -37 -15 -71 -8 -108 24 l-28 24 -3 439 c-2 470 -2 475 48 500 44 22 88 16 121 -16z m490 0 l29 -29 0 -441 0 -441 -28 -31 c-45 -50 -134 -41 -161 18 -7 16 -11 159 -11 449 0 358 2 430 15 454 19 37 41 49 88 50 29 0 45 -7 68 -29z m956 -633 c41 -42 39 -100 -5 -139 l-33 -30 -286 3 -285 3 -24 28 c-30 35 -32 94 -5 128 18 22 28 24 153 30 73 3 206 6 295 5 l163 -1 27 -27z m-45 -408 c21 -6 44 -21 53 -33 23 -33 19 -90 -10 -121 l-24 -26 -285 0 -284 0 -31 26 c-24 20 -31 34 -31 63 0 41 22 78 54 91 30 12 513 12 558 0z m-3227 -1170 c36 -14 58 -68 44 -108 -22 -63 -14 -62 -496 -62 -462 1 -457 0 -481 47 -20 37 -14 73 17 104 l29 29 431 0 c260 0 440 -4 456 -10z"></path>
      <path id="pGqBoDQdV" d="M4214 2591 c-61 -37 -67 -130 -12 -176 25 -21 40 -25 93 -25 l63 0 -1 -527 c-1 -528 -1 -528 22 -579 26 -60 87 -123 151 -156 36 -18 61 -23 125 -23 70 0 87 4 134 30 65 36 123 100 148 163 17 43 18 88 19 567 l0 520 50 3 c73 3 93 10 120 39 26 28 33 97 14 134 -26 47 -42 49 -482 49 -388 0 -415 -1 -444 -19z m476 -197 l65 -6 -5 -509 c-5 -497 -5 -509 -26 -529 -11 -11 -37 -23 -57 -27 -32 -5 -41 -1 -72 30 l-35 35 0 499 c0 275 3 503 7 506 8 9 39 9 123 1z"></path>
    </g>
  </g>
</svg>