<svg class="icon" viewBox="0 0 1097 1024" xmlns="http://www.w3.org/2000/svg" width="274.25" height="256"><path fill="#eee" d="M118.126 169.143h80.434c9.6 0 17.486 7.954 17.486 17.554v80.434c0 9.6-7.955 17.486-17.486 17.486h-80.434A17.623 17.623 0 01100.57 267.2v-80.503c0-9.668 7.955-17.554 17.555-17.554zm0 577.44h80.434c9.6 0 17.486 7.954 17.486 17.554v80.434c0 9.6-7.955 17.486-17.486 17.486h-80.434a17.623 17.623 0 01-17.555-17.486v-80.434c0-9.668 7.955-17.554 17.555-17.554zm0-288.686h80.434c9.6 0 17.486 7.886 17.486 17.486v80.503a17.623 17.623 0 01-17.486 17.554h-80.434a17.623 17.623 0 01-17.555-17.623v-80.434c0-9.6 7.955-17.486 17.555-17.486zm899.108-268.183v74.332a20.571 20.571 0 01-20.571 20.571H352.09a20.571 20.571 0 01-20.571-20.571v-74.332a20.571 20.571 0 0120.571-20.571h644.572a20.571 20.571 0 0120.571 20.571zm0 288.686v74.4a20.571 20.571 0 01-20.571 20.571H352.09A20.571 20.571 0 01331.52 552.8v-74.4a20.571 20.571 0 0120.571-20.571h644.572a20.571 20.571 0 0120.571 20.571zm0 288.754v74.332a20.571 20.571 0 01-20.571 20.571H352.09a20.571 20.571 0 01-20.571-20.571v-74.332a20.571 20.571 0 0120.571-20.571h644.572a20.571 20.571 0 0120.571 20.571z"/></svg>