<svg class="icon" viewBox="0 0 1024 1024" xmlns="http://www.w3.org/2000/svg" width="256" height="256"><path d="M823.253 452.907l46.294 27.776a19.243 19.243 0 010 33.024L512 728.235 154.453 513.707a19.243 19.243 0 010-33.024l46.294-27.776 311.466 186.752zm0 180.992l46.294 27.776a19.243 19.243 0 010 33.024l-337.75 202.624a38.4 38.4 0 01-39.68 0L154.411 694.699a19.243 19.243 0 010-33.024l46.293-27.776L512.171 820.65l311.466-186.752zM531.797 99.157l337.75 202.624a19.243 19.243 0 010 33.024L512 549.333 154.41 334.635a19.243 19.243 0 010-33.024L492.16 99.157a38.4 38.4 0 0139.68 0z" fill="#fff"/></svg>