<svg class="icon" viewBox="0 0 1024 1024" xmlns="http://www.w3.org/2000/svg" width="256" height="256"><path d="M764.282 584.08a29.44 29.44 0 00-37.937 16.086 221.78 221.78 0 01-426.566-81.944 215.483 215.483 0 0137.938-122.158 222.919 222.919 0 01367.231 0 228.23 228.23 0 0121.625 40.213 29.591 29.591 0 0037.937 16.01 29.287 29.287 0 0016.161-37.937 281.418 281.418 0 00-491.817-50.836A274.437 274.437 0 00241.129 518.6a280.735 280.735 0 00539.618 104.024 29.212 29.212 0 00-16.01-37.937" fill="#fff"/><path d="M899.11 573.762a26.253 26.253 0 00-14.719 11.23 25.797 25.797 0 00-5.69 10.85 365.866 365.866 0 01-49.926 116.77 26.48 26.48 0 001.821 31.108l38.469 66.466-57.817 57.892-69.273-39.91a26.253 26.253 0 00-20.638-2.504 25.494 25.494 0 00-13.278 3.415 372.619 372.619 0 01-111.231 44.007 27.163 27.163 0 00-22.763 19.576l-20.638 77.088h-82.02l-20.713-77.316a26.784 26.784 0 00-22.763-19.576 373.15 373.15 0 01-115.253-48.635 27.39 27.39 0 00-4.932-1.821 20.183 20.183 0 00-2.959-1.214 25.114 25.114 0 00-8.574-.607H295a25.266 25.266 0 00-12.746 5.008l-66.239 37.937-58.044-57.816 40.441-69.729a26.404 26.404 0 00-3.186-30.88 2.96 2.96 0 01-.456-1.139 364.652 364.652 0 01-44.386-108.045 31.564 31.564 0 00-1.67-3.642 26.556 26.556 0 00-18.968-18.513l-75.874-20.638v-82.4l75.874-20.637a26.784 26.784 0 0019.576-22.763c0-.607.758-.834.91-1.517a367.687 367.687 0 0147.953-112.294 147.196 147.196 0 004.097-9.712v-1.67a25.797 25.797 0 00-2.807-17.754l-39.986-69.122 57.968-57.892 69.804 40.441a25.721 25.721 0 0027.694-.986c1.442-.607 2.96 0 4.401-1.214a373.15 373.15 0 01110.397-44.842 26.935 26.935 0 007.74-3.642 23.976 23.976 0 006.828-5.842 22.004 22.004 0 002.58-3.945c1.214-1.897 3.11-3.111 3.794-5.463l20.713-77.772h81.869l20.79 76.633c.606 2.428 2.73 3.718 3.793 5.767a28.529 28.529 0 002.428 3.49 24.28 24.28 0 007.587 6.525 28.984 28.984 0 007.588 3.49 369.129 369.129 0 01116.998 47.422c.759.455 1.745 0 2.58.683a25.949 25.949 0 0027.466.759l69.805-40.366 57.664 57.817-39.834 69.121a26.328 26.328 0 00-.607 24.584 28.074 28.074 0 002.504 5.766 369.887 369.887 0 0146.51 110.17c0 1.593 1.822 2.427 2.429 3.793a26.48 26.48 0 0018.513 20.486l70.563 20.486v82.552l-70.563 20.486zm124.283-118.516a16.085 16.085 0 00-.607-2.883 26.404 26.404 0 00-18.817-27.618l-77.24-22.46a417.309 417.309 0 00-42.945-102.354l43.097-74.66a26.404 26.404 0 00-5.994-33.233c-.607-.683-.91-1.67-1.67-2.428l-80.35-80.275a30.35 30.35 0 00-2.58-1.67 26.48 26.48 0 00-33.157-5.918L727.787 145.3a426.262 426.262 0 00-106.224-43.096l-21.776-82.324A26.404 26.404 0 00571.94.607 16.768 16.768 0 00569.133 0H455.322a23.825 23.825 0 00-3.035.607 26.708 26.708 0 00-27.542 19.272l-22.08 83.462a423.682 423.682 0 00-100.837 41.351l-75.874-43.78a26.632 26.632 0 00-33.233 5.92 10.319 10.319 0 00-2.504 1.668l-80.123 80.048a18.513 18.513 0 00-1.745 2.504 26.404 26.404 0 00-5.919 33.233l43.021 74.432a417.309 417.309 0 00-43.704 103.569L20.183 424.44A26.404 26.404 0 00.607 452.363c0 .986-.607 1.897-.607 2.959v113.811c0 .987.531 1.897.607 2.96a26.632 26.632 0 0019.576 27.087l81.868 22.23a424.896 424.896 0 0041.958 100.914l-43.02 74.053a26.404 26.404 0 005.918 33.081 18.665 18.665 0 001.67 2.58l80.35 80.35a35.813 35.813 0 004.021 2.505 26.177 26.177 0 0018.362 8.65 26.86 26.86 0 0013.354-3.567l74.13-42.717a426.414 426.414 0 00103.871 43.324l22.08 83.462A26.86 26.86 0 00450.694 1024a19.955 19.955 0 002.959-.455 15.175 15.175 0 001.745.455h113.811a17.223 17.223 0 001.897-.455 18.058 18.058 0 002.807.455 26.935 26.935 0 0025.874-19.88l22.155-82.171a427.476 427.476 0 00103.113-41.351l77.316 44.538a25.039 25.039 0 0031.791-5.084 20.941 20.941 0 003.794-2.58l80.427-80.275c.835-.758 1.062-1.669 1.745-2.352a26.48 26.48 0 005.842-33.384l-43.703-75.95A419.282 419.282 0 00926.5 621.258l77.468-22.762a26.328 26.328 0 0018.817-27.543 19.5 19.5 0 00.607-2.883V454.26z" fill="#fff"/></svg>